<svg width="100" height="101" viewBox="0 0 100 101" fill="none" xmlns="http://www.w3.org/2000/svg">
<path d="M6.36621 30.0264C17.3979 5.92802 45.8762 -4.66439 69.9746 6.36719C94.0729 17.3989 104.665 45.8771 93.6338 69.9756C91.3771 74.9053 88.3884 79.2735 84.8535 83.0068C84.4882 83.3927 84.3548 83.7003 84.3027 83.9297C84.2487 84.1679 84.2518 84.4564 84.3535 84.8369C84.582 85.692 85.1788 86.6249 85.9893 87.832C86.3586 88.3822 86.78 89.0052 87.1211 89.6152C87.4559 90.214 87.8066 90.9591 87.9326 91.7744C88.0696 92.6615 87.9386 93.645 87.2998 94.5352C86.7092 95.358 85.8289 95.897 84.876 96.2764C83.2306 96.9313 80.5188 97.3048 77.5684 97.5479C74.5279 97.7983 70.9463 97.9282 67.3809 97.9922C60.2881 98.1196 53.0111 97.9862 50.2061 98C43.4452 98.0332 36.571 96.6312 30.0254 93.6348C5.92705 82.6031 -4.66536 54.1248 6.36621 30.0264Z" stroke="#F80000" stroke-width="4"/>
<path d="M53.8998 77.7342C53.8998 80.6829 51.4617 83.0733 48.513 83.0733C45.5643 83.0733 43.1262 80.6829 43.1262 77.7342C43.1262 74.7855 45.5643 72.3951 48.513 72.3951C51.4617 72.3951 53.8998 74.7855 53.8998 77.7342Z" fill="#F80000"/>
<path d="M50.2473 20.8115C54.4468 20.8115 58.1291 21.5665 61.2939 23.0748C64.5196 24.583 67.0461 26.6939 68.872 29.4088C70.6978 32.1237 71.6106 35.3215 71.6106 39.0016C71.6106 42.1989 70.8191 45.1549 69.2369 47.8696C67.6545 50.5241 65.1888 52.9683 61.8414 55.2006C59.4342 56.8058 56.5387 58.363 53.1558 59.8745C52.7767 60.0439 52.5304 60.4193 52.5304 60.8345V62.0429C52.5304 64.2613 50.7321 66.0597 48.5137 66.0597C46.2953 66.0597 44.4969 64.2613 44.4969 62.0429V58.6017C44.4969 56.7671 45.6228 55.1315 47.2995 54.3868C51.1972 52.6558 54.4318 50.7853 57.0034 48.7754C60.1683 46.3018 61.7508 43.2245 61.7508 39.5443C61.7508 36.2263 60.5328 33.6628 58.0983 31.8529C55.6639 29.9827 52.712 29.047 49.2429 29.047C46.5653 29.0471 44.0397 29.5598 41.6663 30.5853C41.2789 30.7527 40.894 30.9289 40.5115 31.1139C38.0433 32.3081 34.8196 30.6827 34.8196 27.9408C34.8196 26.3104 35.6051 24.7525 37.0389 23.9765C38.5901 23.137 40.2235 22.474 41.9393 21.988C44.5563 21.2038 47.326 20.8116 50.2473 20.8115Z" fill="#F80000"/>
</svg>
