<svg width="39" height="39" viewBox="0 0 39 39" fill="none" xmlns="http://www.w3.org/2000/svg">
<path d="M3.13062 11.9624C7.2487 2.96647 17.8798 -0.987711 26.8757 3.13037C35.8713 7.24861 39.8258 17.8797 35.7078 26.8755C34.8727 28.6996 33.7669 30.3178 32.4607 31.7046C32.5162 31.8571 32.6451 32.0783 32.9167 32.4829C33.0435 32.6716 33.2137 32.9229 33.3542 33.1743C33.49 33.4172 33.6688 33.7792 33.7351 34.2075C33.8097 34.69 33.7394 35.2584 33.3708 35.772C33.0385 36.2351 32.5705 36.5009 32.157 36.6655C31.4455 36.9486 30.3649 37.0865 29.323 37.1724C28.2134 37.2637 26.9159 37.3105 25.6365 37.3335C23.1063 37.3789 20.4609 37.3317 19.4958 37.3364C16.9711 37.3488 14.4046 36.8253 11.9626 35.7075C2.96673 31.5894 -0.98742 20.9583 3.13062 11.9624Z" stroke="#636363" stroke-width="3"/>
<path d="M20.8108 29.3171C20.8108 30.3695 19.9406 31.2227 18.8881 31.2227C17.8357 31.2227 16.9655 30.3695 16.9655 29.3171C16.9655 28.2647 17.8357 27.4115 18.8881 27.4115C19.9406 27.4115 20.8108 28.2647 20.8108 29.3171Z" fill="#636363"/>
<path d="M19.5071 9.00049C21.006 9.00049 22.3203 9.26995 23.4498 9.80827C24.6011 10.3466 25.5029 11.1 26.1546 12.069C26.8062 13.038 27.132 14.1793 27.132 15.4928C27.132 16.634 26.8495 17.689 26.2848 18.6579C25.72 19.6054 24.84 20.4778 23.6452 21.2745C22.7861 21.8474 21.7526 22.4032 20.5452 22.9427C20.4099 23.0031 20.322 23.1371 20.322 23.2853V23.7166C20.322 24.5084 19.6802 25.1503 18.8884 25.1503C18.0966 25.1503 17.4547 24.5084 17.4547 23.7166V22.4884C17.4547 21.8336 17.8566 21.2498 18.455 20.9841C19.8462 20.3662 21.0007 19.6986 21.9185 18.9812C23.0481 18.0984 23.6129 17 23.6129 15.6865C23.6129 14.5023 23.1782 13.5873 22.3093 12.9413C21.4404 12.2738 20.3868 11.9399 19.1486 11.9399C18.1929 11.9399 17.2915 12.1229 16.4444 12.4889C16.3062 12.5486 16.1688 12.6115 16.0323 12.6776C15.1513 13.1038 14.0007 12.5237 14.0007 11.545C14.0007 10.9631 14.2811 10.4071 14.7929 10.1301C15.3465 9.83047 15.9295 9.59386 16.5419 9.4204C17.4759 9.14048 18.4645 9.0005 19.5071 9.00049Z" fill="#636363"/>
</svg>
